<?xml version="1.0" standalone="no"?>
<!DOCTYPE svg PUBLIC "-//W3C//DTD SVG 20010904//EN"
 "http://www.w3.org/TR/2001/REC-SVG-20010904/DTD/svg10.dtd">
<svg version="1.0" xmlns="http://www.w3.org/2000/svg"
 width="691.000000pt" height="691.000000pt" viewBox="0 0 691.000000 691.000000"
 preserveAspectRatio="xMidYMid meet">
<metadata>
Created by potrace 1.11, written by Peter Selinger 2001-2013
</metadata>
<g transform="translate(0.000000,691.000000) scale(0.100000,-0.100000)"
fill="#000000" stroke="none">
<path d="M3690 6900 c0 -5 -8 -11 -18 -14 -17 -6 -72 -78 -72 -96 0 -4 -10
-29 -22 -56 -44 -96 -25 -398 28 -451 7 -7 29 -13 48 -13 40 0 46 -13 16 -32
-47 -30 -5 -59 83 -57 29 1 63 4 77 8 28 8 41 41 16 41 -36 0 -10 37 28 42 16
1 32 10 36 18 53 109 69 196 63 339 -5 104 -23 182 -50 209 -7 7 -13 20 -13
28 0 8 -9 14 -19 14 -11 0 -21 6 -23 13 -5 14 -178 22 -178 7z"/>
<path d="M2580 6730 c0 -6 -8 -14 -17 -17 -59 -23 -85 -93 -83 -227 1 -105 31
-252 56 -272 8 -6 14 -21 14 -34 0 -13 8 -24 20 -27 11 -3 20 -11 20 -17 0
-15 58 -66 76 -66 8 0 14 -6 14 -13 0 -22 79 -49 123 -42 62 11 78 30 71 87
-5 40 -4 48 9 48 11 0 17 15 23 56 9 77 -2 172 -32 279 -14 50 -28 100 -31
113 -3 13 -12 26 -19 29 -8 3 -14 15 -14 27 -1 26 -33 66 -54 66 -8 0 -18 5
-21 10 -8 13 -155 13 -155 0z"/>
<path d="M4736 6607 c-26 -24 -46 -50 -46 -59 0 -9 -6 -23 -12 -30 -20 -20
-46 -82 -79 -186 -27 -83 -30 -106 -27 -187 3 -82 6 -95 28 -119 15 -15 41
-29 64 -33 25 -4 40 -12 43 -23 4 -13 19 -20 57 -24 86 -11 108 5 137 99 6 22
25 64 42 94 17 29 36 79 43 110 17 70 18 237 2 282 -23 65 -96 119 -162 119
-39 0 -51 -5 -90 -43z"/>
<path d="M3631 6093 c-24 -27 -39 -133 -35 -263 4 -136 12 -239 20 -252 3 -5
21 -7 40 -4 35 3 35 3 17 -18 -27 -32 -55 -85 -49 -94 10 -17 70 -10 111 12
74 42 85 51 85 68 0 19 -55 34 -90 25 -34 -9 -22 12 15 27 19 8 35 20 35 25 0
6 8 11 19 11 11 0 23 11 30 28 15 39 29 189 27 317 l-1 109 -50 3 c-42 2 -111
10 -150 18 -6 2 -16 -4 -24 -12z"/>
<path d="M2820 5982 c-25 -14 -63 -28 -85 -31 -54 -8 -64 -37 -40 -117 9 -32
21 -68 25 -79 12 -27 80 -223 89 -255 5 -17 16 -27 36 -30 27 -5 49 -30 26
-30 -21 0 -11 -28 12 -34 32 -8 127 18 127 35 0 4 9 9 20 12 17 4 19 12 16 64
-3 54 -19 99 -39 114 -9 6 -27 78 -57 219 -22 109 -32 130 -65 147 -16 8 -30
5 -65 -15z"/>
<path d="M4542 5904 c-22 -10 -64 -116 -67 -169 -2 -29 -41 -125 -55 -135 -3
-3 -10 -12 -13 -20 -4 -8 -16 -30 -28 -49 -14 -23 -18 -42 -14 -62 5 -22 3
-29 -9 -29 -18 0 -21 -11 -7 -26 14 -14 24 -74 13 -74 -6 0 -24 8 -41 17 -16
10 -32 15 -35 12 -3 -3 -8 -27 -11 -55 -2 -27 -12 -75 -20 -107 -8 -32 -15
-71 -15 -86 0 -35 30 -63 72 -68 18 -2 43 -10 56 -19 30 -20 64 -15 77 11 5
11 19 34 31 50 36 52 65 155 43 155 -4 0 -20 11 -34 24 l-27 25 44 3 c42 3 43
4 42 39 -1 32 1 35 21 31 27 -5 63 30 71 68 13 61 29 110 36 110 4 0 8 9 8 20
0 11 11 38 24 59 14 21 22 42 19 45 -4 3 -1 6 5 6 7 0 12 6 12 14 0 7 7 27 15
42 25 48 18 124 -11 124 -8 0 -14 5 -14 10 0 6 -8 10 -18 10 -10 0 -23 5 -29
11 -12 12 -121 22 -141 13z"/>
<path d="M5735 5863 c-19 -5 -125 -105 -125 -117 0 -3 -8 -15 -17 -25 -33 -36
-41 -48 -66 -98 -14 -27 -33 -83 -42 -124 -30 -132 -30 -134 0 -158 15 -11 38
-21 52 -21 16 0 27 -8 33 -24 5 -14 18 -30 30 -36 58 -31 218 123 299 290 32
64 40 203 16 250 -10 19 -24 40 -32 48 -14 15 -114 25 -148 15z"/>
<path d="M2963 5364 c-60 -21 -72 -29 -78 -52 -4 -16 -2 -28 4 -30 6 -2 11 -9
11 -16 0 -7 13 -27 28 -44 23 -25 37 -32 65 -32 l37 0 0 50 c0 45 2 50 23 50
12 0 33 9 46 19 22 17 23 20 10 50 -17 39 -44 40 -146 5z"/>
<path d="M3700 5376 c-42 -12 -52 -24 -45 -51 3 -11 10 -48 15 -82 9 -71 28
-96 67 -91 34 4 68 60 78 127 3 25 9 61 12 78 l5 33 -48 -2 c-27 -1 -65 -6
-84 -12z"/>
<path d="M5383 5237 c-64 -65 -129 -113 -166 -122 -54 -15 -97 -75 -97 -139 0
-25 -11 -45 -45 -82 -24 -27 -45 -59 -45 -70 0 -12 -7 -41 -15 -64 -22 -62
-20 -77 15 -83 60 -13 125 34 156 113 8 21 90 70 128 77 51 9 71 28 106 100
29 59 35 80 38 158 3 79 2 93 -16 113 -24 27 -31 27 -59 -1z"/>
<path d="M1703 4910 c-17 -10 -34 -23 -37 -28 -12 -19 -13 -70 -4 -124 5 -29
11 -65 13 -80 2 -15 9 -37 15 -48 6 -11 8 -20 5 -20 -3 0 1 -13 10 -30 9 -16
14 -30 11 -30 -11 0 46 -134 79 -187 38 -59 141 -163 162 -163 6 0 13 -5 15
-12 6 -18 68 -19 75 -1 3 8 0 19 -8 23 -12 8 -6 25 9 25 4 1 18 6 32 13 23 12
24 12 6 -2 -17 -14 -17 -16 -4 -16 23 0 32 18 18 35 -10 12 -10 15 0 15 8 0
10 3 7 6 -4 4 12 16 34 27 22 10 45 29 51 40 16 30 15 162 -1 181 -8 9 -10 16
-6 16 3 0 -3 12 -14 26 -12 15 -21 35 -21 45 0 11 -4 19 -8 19 -5 0 -17 16
-28 35 -10 19 -22 35 -26 35 -5 0 -8 7 -8 16 0 13 -93 114 -105 114 -2 0 -31
19 -66 42 -54 37 -72 43 -120 45 -39 1 -65 -4 -86 -17z"/>
<path d="M3710 4811 c-5 -11 -24 -28 -40 -38 -18 -10 -35 -32 -41 -53 -7 -19
-22 -48 -33 -64 -20 -27 -24 -28 -75 -22 -33 4 -76 19 -107 36 -68 40 -98 38
-173 -10 -14 -8 -47 -20 -75 -25 l-51 -11 1 -69 c1 -51 7 -80 22 -107 27 -48
72 -98 88 -98 6 0 15 -15 18 -34 4 -19 13 -39 21 -46 8 -7 15 -18 15 -24 0 -7
13 -25 30 -41 16 -16 28 -31 25 -33 -3 -3 1 -12 8 -21 16 -18 57 -118 57 -136
0 -43 -121 -26 -222 30 -14 8 -60 18 -102 21 -114 10 -153 -11 -197 -105 -32
-68 -34 -103 -9 -180 20 -64 21 -72 6 -86 -9 -9 -32 -19 -51 -22 -20 -3 -38
-10 -41 -14 -3 -5 -13 -9 -22 -9 -9 0 -33 -14 -52 -31 -19 -17 -52 -45 -74
-63 -21 -17 -43 -36 -50 -42 -6 -5 -18 -13 -26 -17 -8 -4 -37 -20 -65 -35 -45
-24 -50 -30 -47 -57 4 -36 4 -125 0 -179 -3 -35 0 -40 23 -46 127 -35 209
-133 209 -250 0 -54 -15 -119 -30 -130 -4 -3 -13 -16 -20 -30 -9 -17 -10 -25
-1 -28 6 -2 11 -12 11 -23 0 -10 4 -19 9 -19 5 0 12 -8 15 -17 8 -24 70 -93
84 -93 6 0 13 -9 17 -19 5 -17 123 -101 141 -101 3 0 58 -25 120 -56 63 -30
125 -55 137 -56 44 -2 57 2 57 17 0 8 6 15 14 15 8 0 21 9 29 19 9 14 26 21
58 22 24 1 63 6 87 12 48 11 45 -4 48 212 1 66 6 147 11 180 32 188 44 274 57
395 8 74 24 182 35 240 11 58 21 113 21 123 0 21 -31 22 -110 4 -64 -15 -198
-16 -208 -2 -9 13 -51 33 -77 37 -16 3 -20 12 -21 58 -1 72 6 83 63 105 26 10
89 38 139 61 50 24 95 44 100 44 5 0 20 6 34 13 27 14 94 35 125 39 16 3 23
18 36 78 8 41 20 86 26 100 5 14 13 40 16 57 7 37 1 42 -78 63 -27 7 -54 19
-58 27 -4 7 -13 13 -18 13 -17 0 -39 28 -34 42 6 14 127 78 149 78 8 0 16 4
18 10 2 5 30 11 63 12 33 1 65 7 71 13 6 6 64 19 128 29 l117 18 24 -27 c34
-36 34 -87 1 -105 -22 -11 -26 -22 -32 -91 -7 -86 3 -74 -99 -112 l-40 -15 -3
-72 -4 -73 34 8 c18 4 42 8 54 9 11 2 25 6 32 10 7 4 12 3 12 -2 0 -16 92 -35
100 -21 5 8 39 11 103 10 52 -1 98 2 100 6 7 11 126 8 138 -4 6 -6 6 -20 -1
-37 -15 -40 -13 -44 23 -42 31 1 32 0 35 -47 2 -31 -2 -52 -11 -61 -18 -19
-63 -25 -60 -8 2 6 -4 12 -12 12 -9 0 -15 -9 -15 -23 0 -13 -5 -28 -11 -34 -6
-6 -17 -22 -23 -35 -6 -12 -25 -30 -41 -38 -25 -12 -29 -20 -27 -44 3 -21 -4
-36 -23 -54 -32 -30 -132 -59 -148 -43 -14 14 -58 14 -93 1 -15 -6 -31 -7 -38
-2 -13 10 -87 32 -108 32 -15 0 -24 -63 -33 -228 -2 -34 -11 -77 -19 -94 -9
-17 -16 -39 -16 -49 0 -9 -5 -19 -11 -21 -19 -6 0 -46 24 -50 l22 -3 1 -333 2
-333 46 -45 c25 -24 49 -44 51 -44 3 0 22 -11 43 -25 59 -39 153 -58 252 -52
88 5 130 20 168 59 11 13 37 39 57 58 19 19 38 43 41 53 3 9 9 17 14 17 4 0
18 21 30 48 18 39 54 104 125 224 111 188 176 322 200 414 8 32 19 73 24 89 5
17 12 50 15 75 3 25 12 70 21 100 15 56 20 155 9 184 -3 9 -12 16 -19 16 -7 0
-15 7 -19 15 -4 11 2 15 24 15 45 0 70 43 70 122 0 68 -19 154 -44 203 -9 17
-16 39 -16 50 0 11 -9 35 -20 53 -11 18 -20 38 -20 45 0 7 -15 29 -34 49 -32
33 -67 51 -207 102 -25 9 -77 41 -115 72 -90 71 -114 78 -211 58 l-33 -6 0 45
c0 38 -4 47 -21 52 -12 4 -30 16 -40 26 -43 43 -100 49 -156 19 -51 -27 -65
-25 -91 10 -13 17 -29 30 -37 30 -8 0 -15 5 -15 11 0 6 -10 19 -22 30 -28 22
-78 25 -78 5 0 -8 -10 -31 -22 -51 -18 -31 -23 -34 -30 -21 -5 9 -7 30 -3 46
6 29 -24 112 -45 125 -6 4 -17 22 -25 41 -16 38 -39 44 -55 15z"/>
<path d="M2110 4187 c-62 -31 -59 -51 8 -55 43 -3 53 0 59 15 4 10 10 21 15
24 14 9 -2 39 -21 38 -9 0 -36 -10 -61 -22z"/>
<path d="M1792 3603 c-16 -16 -71 -66 -122 -113 -51 -47 -107 -99 -124 -115
-17 -17 -56 -51 -86 -76 -30 -26 -74 -65 -97 -88 l-43 -42 -2 -207 -3 -207
-172 -3 -173 -2 0 -235 0 -235 169 0 c145 0 170 -2 175 -16 3 -9 6 -361 6
-782 0 -946 9 -1073 84 -1202 22 -39 24 -41 79 -99 21 -23 42 -41 48 -41 5 0
9 -4 9 -9 0 -20 159 -84 235 -95 22 -3 52 -9 67 -12 39 -8 71 4 66 24 -4 16
36 17 511 16 284 0 526 1 539 4 21 4 22 9 22 99 0 83 2 94 16 89 9 -3 18 -6
20 -6 2 0 4 -7 4 -15 0 -8 11 -17 25 -21 14 -3 25 -10 25 -15 0 -5 6 -9 14 -9
8 0 16 -6 19 -14 13 -32 199 -118 307 -141 113 -24 151 -27 315 -27 167 -1
256 12 385 54 79 25 187 79 217 107 12 12 26 21 31 21 23 0 177 150 221 214
43 64 119 193 126 215 5 15 1 23 -12 27 -10 4 -70 31 -133 61 -140 67 -170 74
-170 44 0 -17 -6 -21 -34 -21 -30 0 -37 -6 -71 -59 -42 -67 -178 -201 -204
-201 -5 0 -11 -4 -13 -9 -1 -4 -48 -23 -103 -41 -85 -28 -116 -34 -210 -36
-60 -1 -136 2 -167 7 -55 9 -189 65 -196 81 -2 4 -8 8 -13 8 -11 0 -54 36 -88
74 -14 16 -31 34 -36 40 -45 50 -105 167 -139 274 -24 75 -51 292 -41 326 2 6
6 38 9 71 7 84 29 161 69 247 19 40 38 83 42 96 3 12 10 22 15 22 5 0 33 24
62 53 77 77 114 102 198 135 147 58 339 58 474 -2 32 -14 64 -26 71 -26 23 0
195 -179 195 -203 0 -13 4 -27 9 -32 6 -6 12 -21 15 -35 4 -14 11 -49 18 -77
l12 -53 188 0 188 0 1 383 c0 210 2 390 4 400 3 16 -11 17 -186 17 l-189 0 0
-70 c0 -63 -2 -70 -20 -70 -11 0 -20 6 -20 13 0 17 -93 75 -185 114 -204 87
-489 94 -705 17 -67 -23 -160 -67 -160 -75 0 -4 -12 -10 -26 -13 -15 -4 -41
-22 -59 -40 -18 -19 -42 -37 -53 -40 -22 -7 -112 -88 -112 -100 0 -9 -22 -31
-37 -37 -16 -6 -88 -100 -112 -147 -11 -22 -32 -58 -46 -78 -14 -20 -28 -54
-31 -76 -4 -21 -10 -38 -14 -38 -8 0 -24 -55 -38 -123 -4 -21 -6 142 -4 363
l3 400 -375 0 -376 0 0 -180 0 -180 163 -2 162 -3 5 -670 c3 -369 3 -673 0
-677 -3 -4 -6 5 -5 20 0 23 -4 27 -25 25 -14 -2 -53 -6 -87 -9 -86 -9 -174 10
-207 45 -50 53 -54 111 -55 948 -1 576 1 763 10 769 7 4 107 6 223 6 116 -1
223 1 239 4 l27 6 0 190 c0 170 -2 192 -17 204 -10 7 -24 14 -32 14 -7 0 -22
10 -33 23 -19 21 -28 22 -216 27 l-197 5 -3 438 c-2 478 0 464 -60 410z m839
-2319 c-6 -56 -9 -66 -10 -34 -1 46 9 123 15 117 2 -2 0 -39 -5 -83z m2 -304
c3 -39 2 -55 -3 -40 -8 25 -13 117 -6 109 2 -2 6 -33 9 -69z m26 -150 c1 -24
21 -90 40 -135 32 -73 95 -198 116 -229 l24 -36 -90 0 c-63 0 -91 4 -94 13 -7
21 -10 447 -3 429 4 -9 7 -28 7 -42z m-479 -397 c-133 -7 -280 -7 -280 0 0 4
75 6 168 5 92 -1 142 -3 112 -5z m710 -68 c0 -5 -5 -3 -10 5 -5 8 -10 20 -10
25 0 6 5 3 10 -5 5 -8 10 -19 10 -25z"/>
<path d="M2365 3130 c-68 -21 -135 -112 -135 -185 0 -179 212 -271 337 -146
76 75 82 191 14 269 -52 61 -138 85 -216 62z"/>
</g>
</svg>
